<?xml version="1.0" encoding="utf-8"?>
<!-- Generator: Adobe Illustrator 24.0.1, SVG Export Plug-In . SVG Version: 6.00 Build 0)  -->
<svg version="1.1" id="LOGO" xmlns="http://www.w3.org/2000/svg" xmlns:xlink="http://www.w3.org/1999/xlink" x="0px" y="0px"
	 viewBox="0 0 2197 207" style="enable-background:new 0 0 2197 207;" xml:space="preserve">
<style type="text/css">
	.st0{fill:#D20515;}
	.st1{fill:#FFFFFF;}
	.st2{display:none;}
	.st3{display:inline;}
	.st4{display:inline;fill:#919191;}
	.st5{display:inline;fill:#D20515;}
	.st6{display:inline;fill:#FFFFFF;}
</style>
<title>bl_logo_hor_RGB_pos</title>
<g>
	<rect y="1.2" class="st0" width="255.1" height="204.1"/>
	<path class="st1" d="M210.3,108.6c0.1,0.5-0.3,0.9-1.2,1.5l-0.6,0.3l0.2,0.4c0.1,0.2-0.1,0.6-0.5,0.8l-0.8,0.4
		c-0.4,0.2-0.8,0.2-0.9-0.1l-0.2-0.3l-1.1,0.5l0.2,0.4c0.1,0.2-0.1,0.6-0.5,0.8l-0.9,0.4c-0.4,0.2-0.8,0.1-0.9-0.1l-0.1-0.3
		c-3.3,1.5-6.9,3.2-10.7,4.9l0.2,0.5c0.1,0.2-0.1,0.6-0.5,0.8l-0.9,0.4c-0.4,0.2-0.8,0.1-0.9-0.1l-0.2-0.5l-1.2,0.6l0.2,0.5
		c0.1,0.2-0.1,0.6-0.5,0.8l-0.9,0.4c-0.4,0.2-0.8,0.1-0.9-0.1l-0.2-0.5c-1.7,0.7-3.6,1-4.9-1.6c-0.6-1.2-0.6-3.9-1.1-5.3
		c-0.2-0.5-0.6-0.8-1.1-0.9c-16.6-3.2-22.2,0.4-32.9-2.3c-3.4-0.8-5.2-3.9-9.3-3.9c-9-0.3-11.6-0.1-21.4-0.5
		c-0.4,1.4-0.5,1.7-0.5,1.7L81,107.9l5.2,2.6l1.7,15.1c0,0-1.4,0.4-1.8,0.4c0.3,3,0.6,7.1,0.8,10.8c0.1,3.3,0.3,6.7,0.3,8.9
		c0,1.4-0.3,2.8-1,4.1c-0.7,1.1-1.5,2-2.6,2.8c-0.3,0.2-1.6,1.1-3.2,2s-3.4,1.9-4.3,2.3c0.1,0.4,0.3,0.8,0.5,1.2
		c-20.9,10.1-46.7,13.5-55.1,29.5c-1,1.9-4.4,0.9-4.5-1.1c0-0.9,0-2.4,0-3.2h-0.3c-0.3,0-0.5-0.4-0.4-0.8v-0.9
		c0-0.4,0.3-0.8,0.5-0.8h0.4c0.1-0.9,0.3-1.8,0.5-2.7l-0.3-0.1c-0.2-0.1-0.3-0.5-0.2-0.9l0.3-0.9c0.2-0.4,0.5-0.7,0.7-0.6l0.3,0.1
		c1.5-3.5,4.4-5,5.7-8.3l-0.2-0.1c-0.3-0.1-0.3-0.5-0.2-0.9l0.3-0.9c0.2-0.4,0.5-0.7,0.7-0.6l0.2,0.1c0.2-0.5,0.4-1,0.7-1.5
		l-0.3-0.2c-0.2-0.1-0.2-0.6,0-0.9l0.5-0.8c0.2-0.4,0.6-0.5,0.8-0.4l0.1,0.1h0.1c0.1,0,0.1,0,0.2-0.1c0.1-0.1,0.3-0.3,0.4-0.4
		c1.3-1,3.1-1,4.4-0.1c1.3,0.8,6.4,3.7,11.4-0.7c8.1-7.3,17.6-17.2,24.8-17.6c-1.9-4.2-5.3-12.9-5.7-16.2l-2.4-0.5
		c-1.2-2.7-4.3-15.1-5.2-24.5c0,0-1-10.1,0-13.6c-0.6-0.1-1.6,0.8-1.8,0.8c-1.3-3.2,2.9-30.3,7.2-38.2l6.4-2.6
		c-0.7-0.1-5.3-0.3-17.6-1.3C42.5,52.5,34.5,59,30.5,62.5c-0.7,0.5-1.8,4.4-1.8,4.4s-2,1.8-3.9,3.1c-2.5,1.7-8.6,3.1-9.9,1
		c-0.3-0.5-0.2-0.7,0-1c0.9-1,4.5-2.7,5.7-4.9c-1.9,1-4.1,2-5.8,1.8c-0.7,0-1.1-1.8-0.2-2.2c2.6-1.1,4.6-1.6,6.1-3.7
		s3.2-3.4,5.6-3.5c0,0,11.4-14.9,18.1-22c1.9-1.9,5.3-1.3,5.3-1.3l0.6-2.3c0,0,23-2.8,33.8,0.8c-0.2-6.5,2.7-15.2,12.9-15.2
		c5.2,0,12.9,4.6,14,10.2c0.3,1.7-0.7,2.9-1.2,5.1c-0.9,3.3,0.4,7,0,8.2c-0.3,0.9-1.4,0.9-2.3,2.2c-0.8,1.3-1.5,2.6-2.1,4l-1.4,3.2
		L96.9,50c-2.6,5.7-8,17.2-9.9,28.7l0,0c5.6,0.5,31.2,4.2,31.2,4.2l0.6,2.1c0,0,10.8,1.3,19.6,5.5c2,0.5,6.9-0.3,10.2,1.2
		c0.2-0.1,0.8-0.7,1-0.8c11.5,3.5,21,9.6,32.1,12.2c0,0,5.2,1.3,6.9,1.6c2.9,0.6,5.9,1,8.9,1.1c3.5,0.3,5.5,0.2,8.1,0.4
		C207.3,106.2,209.6,105.9,210.3,108.6 M226.8,73.7c-7.8,0-14.2,6.3-14.2,14.2s6.3,14.2,14.2,14.2c7.8,0,14.2-6.3,14.2-14.2
		C240.9,80,234.6,73.7,226.8,73.7C226.8,73.7,226.8,73.7,226.8,73.7L226.8,73.7z"/>
	<path d="M504.6,148.5c0,35.4-16.6,54.2-61.4,54.2H340.2V3.7h99.3c46.2,0,62.2,18.3,62.2,52c0,25.7-9.7,37.4-37.1,44.2l-5.1,1.4
		l4.6,0.9C494.9,109,504.6,120.5,504.6,148.5z M387.6,86.8h41.7c16.6,0,24-7.1,24-24.3c0-18-6.9-25.1-24-25.1h-41.7L387.6,86.8z
		 M456.3,143.6c0-18.3-7.4-26-24.3-26h-44.5V169h44.5C449.8,169,456.3,161.6,456.3,143.6z M537,137.9V3.7h49.7v132.8
		c0,22,10,30.3,36.8,30.3s36.9-8.3,36.9-30.3V3.7H710v134.2c0,46.8-27.1,68.2-86.5,68.2S537,184.7,537,137.9L537,137.9z M942.9,3.7
		v199h-60.5L797.9,58.8v143.9h-46.2V3.7h60.5l84.5,143.9V3.7H942.9z M983.8,3.7h88.8c69.7,0,87.9,28.5,87.9,99.3
		c0,68.8-20,99.6-87.9,99.6h-88.8V3.7z M1071.2,164.7c29.1,0,38.5-15.1,38.5-61.7c0-46.2-9.4-61.4-38.5-61.4h-37.7v123L1071.2,164.7
		z M1196.7,3.7H1336v38h-89.7v42h74.5v37.4h-74.5v43.7h91.6v38h-141.3V3.7z M1367.4,195v-38.8c21.4,7.3,43.9,10.9,66.5,10.9
		c22.8,0,32.8-6,32.8-21.4c0-13.4-4.3-17.4-22.6-21.1l-33.1-6.9c-34.5-7.1-46-21.1-46-55.1c0-43.7,25.7-62.5,77.4-62.5
		c23.4,0,45.4,4,63.4,10.9v38.8c-19.4-6.9-39.9-10.5-60.5-10.6c-24.6,0-32.8,6.6-32.8,22c0,12.8,5.7,16.6,21.7,20l32.3,6.9
		c37.4,8,47.7,20.6,47.7,56.2c0,42.5-26.3,62-79.9,62C1411.4,206.3,1388.9,202.5,1367.4,195z M1549,3.7h49.7v161h85.4v38h-135
		L1549,3.7z M1715.1,3.7h49.7v199h-49.7V3.7z M1970.4,87.6v108.2c-18.6,6.3-43.1,10.3-68.8,10.3c-69.1,0-101.6-30.6-101.6-103.1
		C1800,31.1,1832.5,0,1901.6,0c24.6,0,48,4,65.7,11.1v38.5c-19.4-6.6-41.1-10.6-61.7-10.6c-41.7,0-54.8,16.8-54.8,63.9
		c0,49.1,13.7,65.4,53.1,65.4c8.7,0,17.4-0.6,26-1.7v-44.5h-36.8V87.6H1970.4z M2132.6,161h-77.9l-14,41.7h-49.4l71.1-199h63.4
		l70.8,199h-50L2132.6,161z M2094.1,35.1l-28.8,89.9h57.4L2094.1,35.1z"/>
</g>
<g class="st2">
	<path class="st3" d="M504.6,148.5c0,35.4-16.6,54.2-61.4,54.2H340.2V3.7h99.3c46.2,0,62.2,18.3,62.2,52c0,25.7-9.7,37.4-37.1,44.2
		l-5.1,1.4l4.6,0.9C494.9,109,504.6,120.5,504.6,148.5z M387.6,86.8h41.7c16.6,0,24-7.1,24-24.3c0-18-6.9-25.1-24-25.1h-41.7
		L387.6,86.8z M456.3,143.6c0-18.3-7.4-26-24.3-26h-44.5V169h44.5C449.8,169,456.3,161.6,456.3,143.6z M537,137.9V3.7h49.7v132.8
		c0,22,10,30.3,36.8,30.3s36.9-8.3,36.9-30.3V3.7H710v134.2c0,46.8-27.1,68.2-86.5,68.2S537,184.7,537,137.9L537,137.9z M942.9,3.7
		v199h-60.5L797.9,58.8v143.9h-46.2V3.7h60.5l84.5,143.9V3.7H942.9z M983.8,3.7h88.8c69.7,0,87.9,28.5,87.9,99.3
		c0,68.8-20,99.6-87.9,99.6h-88.8V3.7z M1071.2,164.7c29.1,0,38.5-15.1,38.5-61.7c0-46.2-9.4-61.4-38.5-61.4h-37.7v123L1071.2,164.7
		z M1196.7,3.7H1336v38h-89.7v42h74.5v37.4h-74.5v43.7h91.6v38h-141.3V3.7z M1367.4,195v-38.8c21.4,7.3,43.9,10.9,66.5,10.9
		c22.8,0,32.8-6,32.8-21.4c0-13.4-4.3-17.4-22.6-21.1l-33.1-6.9c-34.5-7.1-46-21.1-46-55.1c0-43.7,25.7-62.5,77.4-62.5
		c23.4,0,45.4,4,63.4,10.9v38.8c-19.4-6.9-39.9-10.5-60.5-10.6c-24.6,0-32.8,6.6-32.8,22c0,12.8,5.7,16.6,21.7,20l32.3,6.9
		c37.4,8,47.7,20.6,47.7,56.2c0,42.5-26.3,62-79.9,62C1411.4,206.3,1388.9,202.5,1367.4,195z M1549,3.7h49.7v161h85.4v38h-135
		L1549,3.7z M1715.1,3.7h49.7v199h-49.7V3.7z M1970.4,87.6v108.2c-18.6,6.3-43.1,10.3-68.8,10.3c-69.1,0-101.6-30.6-101.6-103.1
		C1800,31.1,1832.5,0,1901.6,0c24.6,0,48,4,65.7,11.1v38.5c-19.4-6.6-41.1-10.6-61.7-10.6c-41.7,0-54.8,16.8-54.8,63.9
		c0,49.1,13.7,65.4,53.1,65.4c8.7,0,17.4-0.6,26-1.7v-44.5h-36.8V87.6H1970.4z M2132.6,161h-77.9l-14,41.7h-49.4l71.1-199h63.4
		l70.8,199h-50L2132.6,161z M2094.1,35.1l-28.8,89.9h57.4L2094.1,35.1z"/>
	<polygon class="st4" points="255.1,86.7 0,188.5 0,205.3 255.1,205.3 	"/>
	<polygon class="st5" points="255.1,81.3 255.1,1.2 0,1.2 0,183.1 	"/>
	<path class="st6" d="M172.5,91.4c-0.6-2.2-2.4-1.9-3.9-2c-2.1-0.1-3.7-0.1-6.6-0.3c-2.4-0.2-4.8-0.5-7.2-0.9
		c-1.4-0.3-5.6-1.3-5.6-1.3c-8.9-2.2-16.6-7-25.9-9.9c-0.2,0.1-0.6,0.6-0.8,0.7c-2.6-1.2-6.6-0.6-8.2-1c-5-2.2-10.4-3.7-15.8-4.4
		l-0.5-1.7c0,0-20.6-3-25.2-3.4l0,0c1.5-9.2,5.9-18.6,8-23.2l5.8,0.4l1.1-2.5c0.5-1.1,1-2.2,1.7-3.2c0.8-1,1.6-1,1.9-1.7
		c0.3-0.9-0.7-3.9,0-6.6c0.4-1.8,1.2-2.7,1-4.1c-0.8-4.5-7.1-8.3-11.3-8.3c-8.2,0-10.6,7-10.4,12.2c-8.7-2.9-27.3-0.7-27.3-0.7
		L43,31.5c0,0-2.8-0.5-4.3,1C33.2,38.2,24,50.2,24,50.2c-1.9,0.1-3.6,1.2-4.5,2.8c-1.2,1.7-2.9,2.1-5,3c-0.8,0.3-0.5,1.7,0.1,1.8
		c1.4,0.2,3.1-0.7,4.7-1.5c-1,1.8-3.8,3.2-4.6,4c-0.2,0.2-0.3,0.4,0,0.8c1.1,1.7,6,0.6,8-0.8c1.5-1.1,3.2-2.5,3.2-2.5
		s0.9-3.1,1.5-3.5c3.2-2.9,9.6-8.2,15.2-13c9.9,0.8,13.7,1,14.2,1l-5.2,2.1c-3.4,6.4-6.8,28.3-5.8,30.9c0.2,0,1-0.7,1.5-0.6
		c-0.8,2.9,0,11,0,11c0.7,7.6,3.2,17.6,4.2,19.8l1.9,0.4c0.3,2.6,3,9.7,4.6,13.1c-5.8,0.3-13.5,8.3-20,14.2c-4,3.6-8.1,1.2-9.2,0.6
		c-1.1-0.8-2.5-0.8-3.6,0c-0.1,0.1-0.2,0.2-0.3,0.3c-0.1,0-0.1,0.1-0.1,0.1h-0.1l-0.1-0.1c-0.2-0.1-0.5,0-0.7,0.3l-0.4,0.6
		c-0.2,0.3-0.2,0.6,0,0.8l0.2,0.1c-0.2,0.4-0.4,0.9-0.6,1.2l-0.2-0.1c-0.2-0.1-0.5,0.1-0.6,0.5l-0.2,0.7c-0.1,0.3-0.1,0.6,0.2,0.7
		l0.2,0.1c-1.1,2.6-3.4,3.9-4.6,6.7l-0.2-0.1c-0.2-0.1-0.5,0.1-0.6,0.5l-0.2,0.7c-0.1,0.3,0,0.7,0.2,0.7l0.3,0.1
		c-0.2,0.7-0.3,1.5-0.4,2.2h-0.3c-0.2,0-0.4,0.3-0.4,0.6v0.8c0,0.4,0.2,0.6,0.4,0.6h0.2c0,0.7,0,1.9,0,2.6c0.1,1.6,2.8,2.4,3.6,0.9
		c6.8-12.9,27.6-15.7,44.5-23.9c-0.2-0.3-0.3-0.7-0.4-1c0.8-0.4,2.2-1.1,3.5-1.9s2.3-1.4,2.6-1.6c0.8-0.6,1.5-1.4,2.1-2.2
		c0.5-1,0.8-2.2,0.8-3.3c0-1.8-0.1-4.6-0.2-7.2c-0.1-3-0.4-6.2-0.7-8.7c0.3,0,1.4-0.4,1.4-0.4l-1.4-12.2l-4.2-2.1L95.8,91
		c0,0,0-0.2,0.4-1.4c7.9,0.3,10.1,0.2,17.3,0.4c3.3,0,4.8,2.5,7.5,3.2c8.6,2.1,13.1-0.7,26.6,1.8c0.4,0.1,0.7,0.3,0.9,0.7
		c0.4,1.2,0.4,3.4,0.9,4.3c1.1,2.1,2.6,1.8,4,1.3l0.2,0.4c0.1,0.2,0.4,0.2,0.7,0.1l0.7-0.3c0.3-0.1,0.5-0.4,0.4-0.6l-0.2-0.4l1-0.5
		l0.2,0.4c0.1,0.2,0.4,0.2,0.7,0.1l0.7-0.3c0.3-0.1,0.5-0.4,0.4-0.6l-0.2-0.4c3.1-1.4,6-2.7,8.6-4l0.1,0.3c0.1,0.2,0.4,0.2,0.7,0.1
		l0.7-0.3c0.3-0.1,0.5-0.4,0.4-0.6l-0.1-0.3l0.9-0.4l0.1,0.3c0.1,0.2,0.4,0.2,0.7,0.1l0.7-0.3c0.3-0.2,0.5-0.4,0.4-0.6l-0.1-0.3
		l0.4-0.2C172.3,92.1,172.6,91.8,172.5,91.4"/>
	<circle class="st6" cx="185.8" cy="74.6" r="11.4"/>
	<path class="st6" d="M255.1,81.3L0,183.1v5.4l179.1-71.4v9.8c8.6-4,18-6.1,27.5-6.1c10,0,13.8,2.8,13.8,10c0,6.2-2.3,8.6-10.7,11
		l-10.1,2.9c-19.1,5.5-24.2,13.6-24.2,27.6v17.3h62.7v-15.5h-42.7v-3.6c0-5.5,1.1-8.3,9.7-10.7l10.1-2.9
		c19.2-5.5,24.1-11.2,24.1-27.7c0-15.8-9.7-24.1-28.7-24.8l0,0l44.4-17.7L255.1,81.3z"/>
</g>
</svg>
